<svg width="886" height="664" viewBox="0 0 886 664" fill="none" xmlns="http://www.w3.org/2000/svg">
<path d="M243.825 463.319C245.055 470.292 238.874 474.976 225.284 477.372C222.33 477.893 220.297 476.729 219.185 473.878C218.17 470.889 217.267 467.149 216.475 462.658C215.683 458.168 215.135 453.329 214.83 448.144C214.622 442.819 214.518 437.049 214.519 430.835C214.486 418.899 215.124 405.931 216.433 391.931C217.839 377.792 219.728 366.736 222.099 358.763C214.738 360.549 207.591 363.21 200.66 366.748C193.708 370.167 188.779 372.62 185.874 374.107C182.947 375.476 180.479 376.338 178.47 376.692C176.461 377.046 175.342 376.573 175.113 375.273C174.842 373.737 175.628 371.283 177.47 367.912C179.292 364.423 182.118 360.756 185.949 356.913C195.724 347.391 207.396 341.372 220.966 338.858L279.38 329.106C282.571 328.544 284.385 329.503 284.822 331.985C284.947 332.694 284.704 334.077 284.092 336.135C283.459 338.074 282.976 340.17 282.642 342.422C281.855 346.947 278.981 349.648 274.017 350.523C269.172 351.377 257.469 353.075 238.908 355.617C239.353 360.9 239.585 367.743 239.604 376.148C239.603 384.434 239.619 393.509 239.653 403.373C239.948 428.544 241.339 448.526 243.825 463.319ZM312.79 459.749C300.972 461.833 293.115 451.825 289.218 429.726C287.093 417.672 286.642 406.48 287.867 396.151C289.809 380.212 293.675 371.731 299.466 370.71C302.893 370.106 306.017 371.931 308.839 376.186C311.119 379.439 312.502 382.79 312.988 386.238C313.821 390.965 313.872 399.547 313.14 411.983C312.256 422.862 312.033 429.542 312.47 432.024C312.908 434.505 313.801 436.115 315.149 436.852C316.616 437.568 318.177 437.78 319.831 437.488C321.604 437.176 323.592 435.668 325.796 432.964C328 430.26 330.173 427.379 332.314 424.321C334.435 421.144 336.361 418.246 338.092 415.625C339.941 412.984 341.28 411.59 342.107 411.445C343.762 411.153 344.943 413.016 345.652 417.034C347.11 425.306 344.342 434.141 337.348 443.539C330.451 452.797 322.265 458.2 312.79 459.749ZM301.897 355.477C297.873 351.312 295.382 346.512 294.423 341.076C293.465 335.64 293.5 331.003 294.529 327.166C295.656 323.19 296.842 320.239 298.086 318.314C299.31 316.27 300.926 315.071 302.935 314.717C306.244 314.134 309.695 316.084 313.289 320.568C316.861 324.934 318.939 328.772 319.523 332.081C320.606 338.226 319.274 343.457 315.527 347.773C311.877 351.95 307.334 354.518 301.897 355.477ZM430.65 382.855C429.963 378.955 427.374 377.401 422.883 378.193C419.81 378.735 416.915 382.352 414.196 389.046C411.456 395.622 409.863 402.483 409.417 409.629L409.48 409.983C410.188 414.001 411.508 418.033 413.44 422.079C415.49 426.104 416.661 428.944 416.953 430.599C417.662 434.617 413.337 439.461 403.98 445.132C402.548 445.994 401.241 446.529 400.059 446.738C397.104 447.258 394.765 446.087 393.042 443.223C391.437 440.338 390.175 436.295 389.259 431.095C388.321 425.777 387.564 420.793 386.988 416.143C386.509 411.353 386.043 406.987 385.592 403.046C385.238 398.965 384.919 395.427 384.634 392.431C384.447 389.296 384.187 386.783 383.853 384.892C383.145 380.874 380.959 379.188 377.295 379.834C373.632 380.48 370.138 385.544 366.814 395.025C363.469 404.388 362.245 411.61 363.141 416.692C364.016 421.655 365.419 426.16 367.351 430.206C369.401 434.231 370.572 437.071 370.864 438.725C371.573 442.743 367.248 447.588 357.891 453.259C356.459 454.121 355.152 454.656 353.97 454.864C351.015 455.385 348.676 454.214 346.953 451.349C345.348 448.464 343.982 443.831 342.857 437.449C339.898 420.668 338.412 408.441 338.399 400.766C338.234 389.463 340.418 378.355 344.952 367.442C346.496 363.758 348.509 361.697 350.99 361.26C354.89 360.572 359.057 363.127 363.491 368.925C364.728 370.413 365.708 371.824 366.431 373.159C370.853 365.068 376.905 360.346 384.587 358.991C389.668 358.095 394.52 359.006 399.143 361.725C403.744 364.326 406.493 368.167 407.389 373.248L407.733 375.198C413.358 364.946 421.37 358.902 431.77 357.069C438.151 355.943 443.288 356.744 447.181 359.469C451.073 362.195 453.447 365.98 454.301 370.825C455.155 375.67 455.572 380.106 455.55 384.13C455.529 388.155 455.348 391.965 455.006 395.558C454.784 399.131 454.557 402.339 454.327 405.183C454.077 407.907 454.087 410.038 454.358 411.574C454.608 412.993 455.206 413.618 456.151 413.452C457.924 413.139 459.912 411.631 462.116 408.927C464.32 406.223 466.493 403.342 468.634 400.284C470.755 397.107 472.681 394.209 474.412 391.588C476.261 388.947 477.6 387.554 478.427 387.408C480.081 387.116 481.263 388.979 481.971 392.997C483.43 401.27 480.652 410.045 473.636 419.324C466.739 428.583 458.564 434.045 449.11 435.712C440.601 437.213 434.982 430.222 432.252 414.741C431.564 410.841 431.266 405.35 431.357 398.266C431.449 391.183 431.213 386.046 430.65 382.855ZM517.145 403.245C526.363 401.62 534.639 396.383 541.974 387.535C544.686 384.254 546.848 381.314 548.461 378.714C550.053 375.997 551.381 374.544 552.445 374.356C554.099 374.065 555.218 375.573 555.802 378.882C556.385 382.191 556.155 386.07 555.112 390.519C554.048 394.849 551.791 399.329 548.343 403.958C539.868 415.323 526.767 422.568 509.04 425.693C494.977 428.173 484.509 424.779 477.635 415.512C475.237 412.279 473.455 407.354 472.288 400.736C471.121 394.118 471.212 387.035 472.562 379.486C473.891 371.819 476.224 365.01 479.561 359.06C483.017 353.089 487.331 348.186 492.504 344.349C497.655 340.395 503.422 337.855 509.803 336.729C516.303 335.583 521.548 336.303 525.537 338.89C529.645 341.456 532.147 345.279 533.043 350.361C533.939 355.442 533.379 359.867 531.363 363.634C529.444 367.263 526.673 370.554 523.051 373.508C519.408 376.343 515.261 379.085 510.61 381.733C506.057 384.242 501.604 386.976 497.252 389.937L498.033 394.369C498.902 398.602 501.206 401.303 504.945 402.472C508.685 403.64 512.752 403.898 517.145 403.245ZM505.317 353.787C499.172 354.871 496.178 362.771 496.336 377.487C498.526 375.395 500.57 373.511 502.468 371.836C504.484 370.141 506.215 368.556 507.661 367.082C510.748 363.857 512.059 360.58 511.594 357.25C511.073 354.296 508.981 353.142 505.317 353.787ZM573.97 382.441L578.847 403.88C579.347 406.716 578.318 409.518 575.76 412.284C573.201 415.05 569.381 416.881 564.299 417.777C561.345 418.298 559.006 417.127 557.282 414.263C555.677 411.378 554.353 406.981 553.312 401.072C551.124 388.663 550.006 378.868 549.958 371.688C550.008 364.368 551.229 356.78 553.621 348.926C547.268 344.684 543.758 340.673 543.091 336.891C541.695 328.974 545.252 324.264 553.76 322.764C558.133 321.993 562.38 323.62 566.502 327.646C569.428 330.42 571.798 333.84 573.612 337.907C575.37 338.206 577.49 338.137 579.972 337.699C583.399 337.095 587.16 335.274 591.255 332.237L595.458 329.12C596.751 328.161 597.929 327.588 598.993 327.4C602.42 326.796 606.732 331.214 611.931 340.655C611.68 345.451 611.28 350.091 610.73 354.575C610.298 359.037 609.786 364.428 609.195 370.747C608.603 377.066 608.436 381.299 608.692 383.447C609.047 385.456 609.874 386.346 611.174 386.117C612.946 385.804 614.935 384.296 617.139 381.592C619.343 378.889 621.515 376.007 623.657 372.949C625.777 369.773 627.703 366.874 629.435 364.254C631.284 361.612 632.622 360.219 633.45 360.073C635.104 359.781 636.286 361.644 636.994 365.662C638.432 373.817 636.244 382.488 630.432 391.677C624.737 400.845 617.271 406.183 608.032 407.69C602.596 408.649 598.133 407.181 594.644 403.288C591.155 399.395 588.799 394.327 587.577 388.084C585.389 375.676 586.093 363.427 589.688 351.339C587.276 352.861 584.415 353.914 581.106 354.498C577.916 355.06 575.59 355.348 574.13 355.362C573.859 360.04 573.597 364.778 573.346 369.574C573.075 374.252 573.283 378.541 573.97 382.441Z" fill="#572923"/>
<path d="M702.047 45.2685C706.256 48.8479 708.312 52.0988 711.601 55.6325C709.348 55.1941 705.111 54.074 705.111 54.074C705.111 54.074 704.09 53.1603 703.608 52.5183C698.094 45.3287 673.475 28.7819 654.273 50.4876C650.761 54.4999 636.817 78.9974 616.177 87.3136C611.616 89.0813 602.35 88.9942 597.857 86.5086C601.612 86.9867 605.367 87.4647 608.993 86.502C626.39 81.9549 636.286 65.7463 638.834 61.208C646.748 46.5919 656.961 41.9912 661.607 39.6679C656.55 40.8861 639.04 46.9321 632.868 58.4976C631.255 61.4729 625.65 75.399 610.28 80.35C603.933 82.4138 596.466 81.1799 590.825 77.8559C594.665 78.5365 598.987 79.8591 602.997 79.4285C615.62 78.0379 619.015 66.4278 621.365 61.6697C630.665 42.5276 653.672 36.9413 662.286 35.9814C682.135 33.6086 695.782 39.9543 702.047 45.2685Z" fill="#572923"/>
<path d="M700.309 56.6577C726.282 62.0412 739.519 68.798 748.362 73.9371C755.08 77.8044 761.26 82.9161 763.515 89.419C767.857 102.02 763.368 137.53 761.305 150.29C753.593 141.534 734.572 125.557 684.807 113.417C647.341 104.291 627.338 109.198 621.487 110.295C628.155 98.5211 647.565 67.0878 662.098 60.0194C668.105 57.1456 679.069 52.1857 700.309 56.6577Z" fill="#C50015"/>
<path d="M681.281 119.038C698.413 123.073 715.361 128.311 730.468 136.49C753.611 149.022 758.262 156.554 759.34 159.371C760.078 162.137 759.186 164.938 758.663 167.606C756.736 165.796 753.601 157.453 729.352 143.047C721.16 138.197 695.227 127.229 661.418 121.503C638.917 117.692 615.344 123.192 615.145 123.73C615.966 121.392 617.608 118.231 620.555 117.165C631.76 112.905 653.834 112.672 681.281 119.038Z" fill="#C9B27E"/>
<path d="M613.08 130.426C617.911 128.415 623.308 127.249 628.408 125.753C623.169 131.965 619.743 138.454 617.352 146.522C615.909 151.419 615.812 156.615 615.39 161.667C613.916 161.442 612.004 161.814 610.898 160.698C608.162 158.101 606.942 154.694 604.83 151.813C604.107 150.471 602.562 149.193 603.255 147.688C605.593 146.813 607.28 149.439 609.108 150.381C609.546 147.511 609.884 144.53 610.436 141.677C608.65 140.457 607.643 138.693 604.937 138.185C595.231 136.42 598.496 149.994 599.362 154.2C600.809 159.159 604.722 163.925 610.419 166.12C607.973 178.349 607.838 191.404 613.411 203.529C617.227 211.976 624.3 219.592 633.271 224.656C670.87 245.836 697.289 234.612 706.538 229.485C714.513 225.111 721.184 219.402 726.891 213.166C734.726 213.509 742.248 210.582 747.049 205.724C749.655 203.089 757.514 194.15 752.44 190.913C748.528 188.421 745.258 193.133 744.125 194.476C745.159 194.539 748.602 194.78 745.189 197.386C742.158 199.767 738.702 201.892 735.685 204.18C734.835 203.671 733.984 203.162 733.247 202.671C736.219 194.597 741.373 187.424 744.557 179.477C746.581 174.574 747.5 169.314 748.177 164.111C750.771 166.876 753.125 169.698 755.464 172.613C754.728 175.154 753.993 177.695 752.704 180.057C752.025 181.469 751.133 183.512 751.006 184.346C751.006 184.346 753.273 183.933 756.22 185.141C763.547 188.059 763.494 196.768 759.459 202.69C756.769 206.638 752.789 209.916 748.526 212.771C741.571 217.301 731.909 219.048 728.552 220.526C724.713 222.119 721.98 224.829 719.26 227.446C716.4 230.231 712.929 232.45 709.459 234.668C704.218 237.848 698.552 240.774 692.262 242.467C691.044 242.85 689.812 243.325 688.508 243.505C657.41 246.626 631.518 233.864 623.283 227.017C617.345 221.848 612.935 215.774 608.753 209.735C608.384 209.111 608.016 208.486 607.533 207.844C603.819 201.782 601.945 195.053 601.106 188.387C601.062 185.633 603.012 173.613 601.523 170.448C599.807 167.249 595.697 165.296 593.854 162.172C592.237 159.083 591.357 155.727 591.611 152.544C591.935 148.14 591.324 144.541 592.937 139.292C593.87 136.213 596.689 133.706 600.301 132.835C604.013 132.075 607.584 133.757 611.127 134.866C611.948 133.286 612.514 131.856 613.08 130.426Z" fill="#572923"/>
<path d="M651.463 132.776C655.147 131.443 659.525 132.395 663.082 134.169C667.702 136.58 671.628 139.737 674.52 143.589C667.86 140.11 660.589 136.063 652.655 136.369C646.195 136.899 642.244 141.508 639.072 145.572C641.053 140.189 644.989 134.915 651.463 132.776Z" fill="#572923"/>
<path d="M701.954 151.564C707.408 150.027 713.571 149.925 719.409 151.195C722.994 152.026 726.396 154.061 727.8 157.023C730.82 162.316 729.689 168.208 727.85 173.422C728.018 168.521 728.539 162.821 724.173 158.744C718.32 153.777 709.733 152.277 701.954 151.564Z" fill="#572923"/>
<path d="M652.093 146.895C658.568 146.272 665.696 148.97 669.637 153.551C671.806 156.061 672.161 158.295 671.893 160.812C668.223 159.778 664.567 158.652 660.897 157.618C660.897 157.618 659.152 153.089 653.469 150.8C648.325 148.784 642.603 151.322 642.603 151.322C644.387 149.51 647.503 147.332 652.093 146.895Z" fill="#572923"/>
<path d="M698.488 163.637C704.665 162.685 713.437 166.013 717.775 171.033C719.944 173.543 720.172 176.61 719.394 179.428C715.936 177.764 712.464 176.192 708.879 174.603C707.631 172.138 705.972 169.327 702.783 168.177C696.307 165.768 691.109 167.912 691.109 167.912C692.298 166.199 695.513 164.131 698.488 163.637Z" fill="#572923"/>
<path d="M628.201 168.17C630.708 166.941 634.434 166.847 636.844 168.541C638.53 169.651 639.014 172.567 638.702 173.088C639.183 172.214 636.065 169.843 633.813 170.163C629.477 170.449 627.284 176.463 631.918 178.022C640.505 181.038 649.769 175.818 658.823 176.536C664.207 176.979 668.912 180.35 671.946 184.034C677.84 183.417 684.584 184.067 689.233 187.808C694.591 192.226 699.269 197.298 705.703 200.743C707.305 201.651 709.472 201.887 711.116 201C714.232 199.581 713.521 195.114 710.503 193.611C708.561 192.652 705.969 193.677 705.969 193.677C706.068 192.271 708.065 191.344 709.467 191.274C712.613 191.185 715.617 192.78 717.007 195.077C719.687 199.56 717.946 204.885 713.867 208.053C709.916 211.145 703.824 211.542 698.468 210.915C685.786 209.643 674.392 202.22 668.394 192.872C660.617 195.192 651.989 196.244 643.572 194.392C636.373 192.914 628.31 189.505 624.723 184.884C620.343 179.383 621.246 171.183 628.201 168.17Z" fill="#572923"/>
<path d="M692.262 242.467C691.044 242.85 689.727 243.123 688.508 243.505C686.696 247.019 682.291 248.526 678.835 250.652C675.633 252.627 671.752 253.74 667.813 254.466C662.784 255.499 657.641 256.515 652.782 257.953C648.065 259.223 644.396 261.98 640.558 264.331C638.898 260.004 628.817 244.727 621.22 238.262C615.154 233.168 611.028 226.759 609.041 220.012C607.948 216.53 608.825 213.063 608.781 209.55C608.412 208.926 608.044 208.301 607.562 207.659C605.805 207.77 604.062 207.788 602.447 208.489C598.877 209.84 595.095 211.063 591.114 211.308C584.427 211.804 577.625 210.767 571.066 211.945C565.697 212.926 560.227 210.765 554.701 211.249C544.344 212.227 562.001 217.384 566.026 220.651C568.747 222.583 570.307 225.284 572.008 227.818C575.524 232.902 578.403 238.363 580.46 243.888C581.623 246.908 590.234 268.782 591.428 276.923C592.65 284.879 594.031 300.155 594.372 300.965C594.712 301.775 599.432 305.054 599.8 304.92C600.282 304.804 600.419 265.125 595.664 245.355C594.528 239.875 591.366 234.75 589.507 229.445C588.826 227.067 588.3 224.428 589.886 222.396C597.803 215.361 607.463 238.722 610.482 242.499C613.715 247.161 629.731 259.269 631.418 262.653C632.482 264.805 633.631 267.159 633.859 269.468C631.992 276.384 631.017 283.531 627.804 290.148C625.426 295.091 625.754 300.542 624.51 305.658C623.888 308.216 622.856 312.701 623.437 313.453C624.032 314.112 626.087 314.331 626.923 314.174C627.758 314.018 630.103 297.889 634.123 289.785C636.018 282.684 638.962 275.553 645.208 270.347C648.267 267.781 652.957 267.454 657.108 266.856C663.242 266.181 668.611 263.684 674.476 262.494C679.392 260.686 684.024 258.455 689.039 256.757C692.397 258.311 696.167 259.455 698.959 261.681C700.631 262.884 701.057 264.654 701.738 266.274C694.499 269.623 679.428 278.694 674.26 285.201C667.335 293.336 651.941 308.326 652.31 308.951C652.778 309.686 656.249 310.5 656.944 310.511C657.751 310.539 674.391 293.464 685.426 287.283C703.429 277.239 720.615 276.355 732.615 276.006C729.454 272.397 703.166 259.954 692.262 242.467Z" fill="#C9B27E"/>
<path d="M615.197 265.579C620.028 264.326 626.193 268.014 625.756 272.401C625.729 275.618 622.216 278.115 618.306 277.897C614.239 277.94 610.37 275.17 609.958 271.791C609.361 268.858 611.853 266.206 615.197 265.579Z" fill="#C9B27E"/>
<path d="M241.922 171C240.645 173.112 239.606 175.293 238.205 177.324C229.371 192.003 223.515 207.594 218.715 223.356C207.459 229.248 196.672 236.315 188.98 245.412C184.889 250.363 181.827 256.335 182.806 262.354C183.354 267.571 189.705 270.953 195.743 271.355C200.695 271.305 205.328 269.311 209.782 267.807C209.219 273.423 208.666 279.132 208.684 284.781C208.649 292.131 208.852 299.55 211.545 306.519C213.002 310.51 215.694 314.183 219.865 316.57C222.208 318.019 225.147 318.558 227.992 319.295C223.303 321.86 218.407 324.635 212.675 324.954C207.078 325.449 201.453 323.497 198.087 319.989C193.577 315.472 192.237 309.302 191.401 303.551C190.452 294.515 190.871 285.335 191.993 276.27C185.451 278.747 169.255 285.912 165.887 272.515C161.414 255.185 189.533 239.703 200.457 233.94C204.515 220.987 208.811 208.103 215.609 195.993C221.967 186.283 231.219 177.776 241.922 171Z" fill="#C9B27E"/>
<path d="M341.283 248.032C343.292 247.678 344.775 250.219 345.734 255.655C346.254 258.61 345.649 262.433 343.917 267.125C342.164 271.699 339.592 276.112 336.198 280.366C332.903 284.48 329.03 288.087 324.58 291.187C320.131 294.286 315.602 296.242 310.993 297.055C304.02 298.284 298.873 297.424 295.551 294.476C292.326 291.389 290.12 286.478 288.932 279.741C287.724 272.887 288.321 260.719 290.723 243.236C274.289 245.402 262.35 247.141 254.904 248.453L252.423 248.891C252.608 262.384 253.971 276.339 256.512 290.757C257.637 297.138 255.985 301.938 251.557 305.155C249.499 306.615 247.49 308.005 245.529 309.325C243.687 310.625 241.584 311.483 239.22 311.899C233.311 312.941 229.419 308.144 227.544 297.508C225.67 286.872 225.686 272.795 227.594 255.278C222.499 256.785 217.994 258.189 214.08 259.488C210.284 260.766 207.264 261.603 205.018 261.999C202.773 262.395 201.546 262.002 201.338 260.82C200.713 257.275 202.973 253.16 208.118 248.476C213.381 243.771 220.868 239.587 230.58 235.926C236.71 205.723 246.978 184.478 261.384 172.191C266.668 167.604 272.619 164.727 279.237 163.561C291.076 161.596 300.147 163.287 306.451 168.633C312.873 173.959 317 181.822 318.834 192.222C320.764 202.483 319.997 216.448 316.531 234.118C315.293 240.916 314.127 247.092 313.035 252.646C311.942 258.2 311.677 262.572 312.24 265.763C312.802 268.954 313.466 271.335 314.23 272.906C314.994 274.477 316.263 275.107 318.035 274.794C321.226 274.232 327.647 266.764 337.299 252.39C339.009 249.651 340.337 248.199 341.283 248.032ZM294.213 201.862C292.401 191.581 287.654 187.117 279.972 188.471C272.173 189.846 266.02 194.342 261.514 201.96C257.105 209.439 254.333 218.945 253.198 230.477L293.531 223.915C294.819 213.94 295.046 206.589 294.213 201.862ZM382.487 284.452C365.608 287.549 352.971 283.258 344.576 271.578C341.658 267.462 339.604 262.036 338.417 255.3C337.209 248.446 336.519 241.074 336.346 233.184C336.002 217.404 338.052 202.421 342.497 188.234C344.757 181.012 347.598 174.662 351.019 169.185C358.522 157.14 368.016 150.166 379.5 148.263C384.582 147.367 388.79 148.088 392.127 150.424C395.56 152.621 397.735 156.32 398.652 161.52C399.568 166.72 398.959 172.249 396.824 178.109C394.668 183.85 391.667 189.984 387.822 196.511C384.074 202.899 379.846 209.676 375.138 216.842C370.431 224.008 365.935 231.685 361.652 239.872L362.902 246.963C364.068 253.581 366.34 258.176 369.718 260.749C373.096 263.322 376.676 264.275 380.458 263.608C390.621 261.817 398.717 255.211 404.746 243.791C407.208 239.092 409.266 236.597 410.921 236.306C412.575 236.014 413.756 237.877 414.465 241.895C415.173 245.913 414.779 250.247 413.284 254.898C411.886 259.409 409.727 263.749 406.806 267.92C403.865 271.972 400.288 275.527 396.075 278.585C391.861 281.642 387.332 283.598 382.487 284.452ZM375.28 187.573C377.22 184.063 378.68 180.942 379.661 178.21C380.642 175.478 380.903 172.812 380.444 170.212C379.965 167.494 378.78 166.302 376.89 166.635C372.753 167.364 368.894 172.431 365.312 181.836C361.849 191.22 360.095 203.044 360.05 217.308C362.985 210.454 365.742 204.668 368.322 199.948C371.02 195.208 373.34 191.083 375.28 187.573ZM431.569 275.801C419.751 277.884 411.895 267.876 407.999 245.776C405.874 233.722 405.425 222.53 406.65 212.201C408.593 196.262 412.459 187.782 418.25 186.761C421.677 186.157 424.802 187.982 427.623 192.237C429.902 195.491 431.285 198.842 431.771 202.29C432.604 207.017 432.655 215.598 431.922 228.034C431.037 238.913 430.814 245.593 431.251 248.075C431.689 250.557 432.582 252.166 433.93 252.903C435.397 253.619 436.957 253.832 438.612 253.54C440.384 253.228 442.373 251.72 444.577 249.016C446.781 246.312 448.954 243.431 451.096 240.373C453.216 237.197 455.142 234.298 456.874 231.678C458.723 229.037 460.062 227.643 460.889 227.498C462.544 227.206 463.725 229.069 464.433 233.087C465.891 241.36 463.123 250.194 456.128 259.591C449.23 268.849 441.044 274.252 431.569 275.801ZM420.683 171.527C416.658 167.363 414.167 162.562 413.209 157.126C412.251 151.69 412.287 147.053 413.316 143.216C414.443 139.24 415.629 136.29 416.873 134.364C418.097 132.321 419.714 131.122 421.723 130.768C425.032 130.185 428.483 132.135 432.076 136.62C435.648 140.986 437.726 144.823 438.309 148.132C439.392 154.278 438.06 159.508 434.312 163.824C430.662 168.001 426.119 170.569 420.683 171.527ZM487.084 177.004C494.981 175.49 501.151 175.925 505.592 178.311C510.013 180.578 512.723 184.547 513.723 190.22C514.702 195.774 513.832 200.863 511.113 205.485C508.492 209.968 504.904 213.464 500.35 215.972C504.402 218.914 508.11 221.976 511.474 225.161C514.956 228.324 517.051 231.915 517.76 235.933C519.155 243.851 517.107 250.548 511.614 256.025C506.101 261.384 497.731 265.052 486.504 267.031C475.395 268.989 466.678 268.272 460.353 264.878C454.007 261.366 450.344 256.833 449.365 251.279C448.365 245.607 448.818 240.226 450.724 235.138C452.748 230.029 455.355 227.194 458.546 226.631C460.437 226.298 461.921 226.767 462.998 228.04C464.054 229.194 466.278 232.823 469.669 238.927C470.913 241.145 472.668 243.15 474.934 244.944C480.16 249.019 487.501 250.223 496.955 248.556C494.745 244.316 491.764 240.881 488.011 238.253C484.355 235.485 480.72 232.836 477.105 230.305C473.491 227.774 470.2 225.003 467.233 221.993C464.244 218.864 462.333 214.936 461.5 210.209C460 201.7 461.972 194.224 467.417 187.781C472.61 181.992 479.166 178.399 487.084 177.004ZM492.156 209.923C495.987 204.008 497.632 199.514 497.09 196.442C496.84 195.024 496.09 193.876 494.839 193C493.685 191.985 492.163 191.644 490.272 191.978C488.381 192.311 486.591 192.87 484.902 193.655C483.33 194.42 482.034 195.014 481.012 195.438C481.804 199.928 485.518 204.757 492.156 209.923Z" fill="#572923"/>
<path d="M614.344 409.704C616.349 408.559 618.138 407.212 620 406C616.635 410.984 612.196 415.227 607.256 418.864C603.031 421.894 598.163 424.386 592.864 425.195C589.356 425.733 585.919 424.386 583.199 422.433C577.399 428.158 569.38 431.66 561.075 432.536C554.702 433.411 548.115 431.121 543.605 427.013C540.454 428.158 537.018 428.495 533.653 428.764C530.359 433.95 525.705 438.395 519.834 440.887C512.889 443.918 504.942 445.601 497.352 444.187C493.343 443.446 489.62 441.628 486.398 439.271C481.672 444.052 476.446 448.632 470.073 451.326C466.708 452.74 462.985 453.818 459.262 453.077C457.114 452.673 455.324 451.528 453.606 450.451C448.236 455.973 440.646 459.341 432.842 460.486C428.618 461.024 424.179 460.822 420.241 459.071C417.95 458.128 416.017 456.647 414.083 455.098C410.933 456.175 407.64 456.647 404.274 456.714C402.127 459.812 399.692 462.775 396.685 465.133C392.962 468.096 388.38 469.982 383.726 471.262C377.21 473.013 370.051 473.484 363.678 471.059C361.172 470.184 358.953 468.77 356.876 467.221C348.141 476.38 335.683 482.239 322.796 483.991C316.781 484.933 310.409 483.586 305.469 480.219C300.529 484.933 287.856 495.777 273.966 490.658C267.307 488.166 266.877 479.276 267.021 476.111C267.379 468.163 268.596 460.216 270.386 452.471C270.386 452.471 267.737 477.39 281.054 481.768C285.207 483.115 289.574 483.452 293.727 482.442C300.958 480.556 306.901 475.976 312.128 471.059C314.848 474.36 319.574 475.1 323.726 475.303C331.674 475.303 339.478 473.147 346.709 469.982C353.153 467.153 358.738 462.978 363.535 458.061C368.977 462.573 376.566 464.392 383.726 463.449C392.389 462.439 401.124 459.139 406.924 452.74C408.427 451.259 409.43 449.373 410.862 447.891C411.864 447.487 413.081 447.555 414.155 447.42C416.446 447.285 418.666 446.612 420.885 446.006C424.966 449.844 430.766 452 436.565 451.73C445.443 451.124 454.25 447.622 460.336 441.358C463.343 443.446 467.066 444.861 470.861 444.12C479.882 442.369 487.185 436.375 493.2 430.111C497.495 433.411 502.865 435.499 508.45 435.634C515.968 435.836 523.486 433.748 529.929 430.111C534.297 427.484 537.734 423.78 540.454 419.672C543.819 419.537 547.185 419.066 550.335 417.921C554.344 421.356 559.5 423.78 565.084 423.646C574.392 423.443 583.628 419.672 590 413.341C592.649 415.227 595.943 416.574 599.38 416.17C604.821 415.496 609.618 412.466 614.344 409.704Z" fill="#C9B27E"/>
<path d="M158.558 395.701C156.921 386.066 160.023 375.796 166.403 368.253C167.126 374.791 166.551 382.023 170.506 387.763C173.311 392.416 178.65 395.135 184.265 395.176C186.713 395.567 188.706 393.913 190.509 392.611C195.614 389.069 197.816 383.09 202.17 378.969C202.026 382.845 201.417 386.663 200.696 390.492C198.061 408.1 195.903 425.875 194.888 443.635C194.143 457.614 194.905 471.758 198.256 485.506C204.218 510.435 233.416 491.767 236.338 490.231C233.52 498.925 221.416 510.63 205.578 512.38C182.726 514.906 185.135 473.5 185.832 459.084C186.991 437.449 190.121 416.036 193.239 394.515C189.236 398.708 186.873 404.263 182.232 407.864C177.883 410.992 171.637 411.461 166.976 408.668C162.352 406.201 159.375 401.015 158.558 395.701Z" fill="#C9B27E"/>
</svg>
